<?xml version="1.0" encoding="UTF-8"?>
<svg id="Layer_1" data-name="Layer 1" xmlns="http://www.w3.org/2000/svg" viewBox="0 0 512 512">
  <defs>
    <style>
      .cls-1 {
        fill: #3b3a3c;
      }

      .cls-1, .cls-2 {
        stroke-width: 0px;
      }

      .cls-2 {
        fill: #db2427;
      }
    </style>
  </defs>
  <path class="cls-2" d="m495.04,394.51c-6.78,56.93-79.03,55.24-120.57,46.59-112.97-23.53-252.92-127.12-315.11-223.29-25.65-39.66-61.46-117.79-2.54-146.44,70.47-34.26,200.47,34.92,259.18,76.11,5.33,3.74,12.81,8.51,17.4,12.74,1.77,1.64,2.28,2.38-.68,2.06-46.17-32.8-100.91-63.93-156.87-76.03-88.12-19.05-130.33,19.48-86.56,104.37,49.97,96.92,200.81,208.73,308.23,227.43,41.83,7.28,95.56,4.83,94.79-50.26.88-.1,2.73,1.82,2.73,2.05,0,7.58.85,17.49,0,24.66Z"/>
  <path class="cls-1" d="m96.38,291.76C52.46,248.83-20.52,149.2,15.83,86.54c22.2-38.27,76.17-39,114.79-32.45.37,2.28-3.31,1.47-4.84,1.42-21.68-.74-37.04-3.68-58.88,2.65C11.63,74.19,8,124.89,25.46,172.26c45.67,123.86,240.56,266.75,370.42,281.68,45.04,5.18,100.31-4.6,107.35-58.08.65-4.95-2.18-12.91,2.76-15.73v19.86c0,8-8.57,26.23-13.73,32.85-35.93,46.01-124.95,25.7-171.92,8.96-63.6-22.67-123-61.29-174.65-104.14"/>
</svg>